<svg xmlns="http://www.w3.org/2000/svg" viewBox="0 0 319.2 67.47"><defs><style>.cls-1{fill:#00c3ff;}</style></defs><g id="Layer_2" data-name="Layer 2"><g id="Layer_1-2" data-name="Layer 1"><path d="M2.88,54q.71-7.26,1.74-27.77H0c.08-.78.18-2.45.32-5s.22-4.38.25-5.52H5.94c0-1,0-1.88,0-2.61a32,32,0,0,1,.36-5.45A8.39,8.39,0,0,1,7.59,4.29a9,9,0,0,1,2.72-2.46,11.22,11.22,0,0,1,4-1.45A27.55,27.55,0,0,1,18.88,0a43.1,43.1,0,0,1,4.75.28,43,43,0,0,1,6.11,1.23c.07,4,.24,7.34.49,10a19.91,19.91,0,0,0-6.73-1.36,4.85,4.85,0,0,0-3.2.95c-.77.63-1.15,1.79-1.15,3.48l0,1.13h8.69q-.3,4.35-.6,10.52H19.41L18.16,54q-4.5-.08-7.72-.08T2.88,54Z"/><path d="M30.58,54q.41-3.52.6-5.79t.39-5.82c.12-2.36.23-5,.33-7.84s.17-6.18.23-10q3.75.06,6,.06c1.37,0,3.33,0,5.89-.06q-.49,5.45-.72,9.57c-.14,2.75-.24,5.65-.27,8.73Q42.9,51,42.9,54c-2.28,0-4.25-.06-5.9-.06S33.23,54,30.58,54Zm1.82-33.1c.11-2.29.17-4.09.17-5.42q0-.57,0-1.56Q36,14,38.39,14q3.26,0,5.7-.06c-.06.6-.09,1.1-.11,1.5L43.8,19c0,.53,0,1.17,0,1.9-1.9,0-3.73-.06-5.48-.06S34.51,20.85,32.4,20.89Z"/><path d="M48.87,54q.84-6.54,1.28-14.45t.52-15q3.46.06,6,.06c1.94,0,3.8,0,5.59-.06L62,28.49a22.35,22.35,0,0,1,1.65-1.68,9.65,9.65,0,0,1,1.71-1.21,11,11,0,0,1,2.18-1A15.56,15.56,0,0,1,70,24a18.77,18.77,0,0,1,2.86-.21,18.15,18.15,0,0,1,4,.44,10.88,10.88,0,0,1,3.3,1.27,8,8,0,0,1,2.22,2,6.81,6.81,0,0,1,1.18,2.64,14.65,14.65,0,0,1,.29,2.91c0,.73-.08,2.3-.24,4.72l-.49,10.43c-.1,2.06-.15,4-.15,5.71-1.94,0-3.75-.06-5.44-.06q-3.42,0-6.24.06.25-2.62.55-7.8c.19-3.44.29-5.87.29-7.27,0-2.17-.42-3.68-1.26-4.54a4.24,4.24,0,0,0-3.15-1.28,5.23,5.23,0,0,0-3.16,1.1,6.87,6.87,0,0,0-2.29,3.18,26,26,0,0,0-1.15,6.87c-.22,3.19-.37,6.43-.44,9.74-1.92,0-3.79-.06-5.62-.06S51.12,54,48.87,54Z"/><path d="M92,33c.37-1.9.6-3.21.69-3.94s.25-1.84.46-3.38a68.34,68.34,0,0,1,14.27-1.81,23.77,23.77,0,0,1,6.22.76A9.18,9.18,0,0,1,118,27.05a6.91,6.91,0,0,1,1.58,4.87q0,1.62-.43,7.26c-.28,3.76-.51,8.7-.66,14.81-1.88,0-3.76-.06-5.62-.06s-3.73,0-5.76.06q.39-3.16.87-13.08-1.09.51-1.71.75c-.42.15-1.14.38-2.17.69s-1.85.57-2.43.78a5.75,5.75,0,0,0-1.52.8,3.14,3.14,0,0,0-.92,1A2.36,2.36,0,0,0,99,46.09a2.18,2.18,0,0,0,.78,1.68,3.67,3.67,0,0,0,2.48.69,10.11,10.11,0,0,0,1.29-.1,12.4,12.4,0,0,0,1.91-.51q-.84,2.22-2,6.48a29.21,29.21,0,0,1-4.7.41,15.37,15.37,0,0,1-5.95-1,7.44,7.44,0,0,1-3.66-3.21,8.86,8.86,0,0,1-1.28-4.44,7.61,7.61,0,0,1,.48-2.65,8.7,8.7,0,0,1,1.48-2.53,10.16,10.16,0,0,1,2.36-2.12,16.74,16.74,0,0,1,3.7-1.66,50.35,50.35,0,0,1,5.95-1.46c1-.2,1.91-.4,2.75-.62a12.3,12.3,0,0,0,1.78-.58,2.87,2.87,0,0,0,.87-.58,2,2,0,0,0,.47-.69,1.94,1.94,0,0,0,.15-.76,1.91,1.91,0,0,0-.92-1.69,5.12,5.12,0,0,0-2.71-.59Q99.26,30.16,92,33Z"/><path d="M124.7,54q.83-6.54,1.27-14.45t.53-15q3.47.06,6,.06c1.94,0,3.81,0,5.6-.06l-.29,3.92a20.68,20.68,0,0,1,1.64-1.68,9.39,9.39,0,0,1,1.72-1.21,10.88,10.88,0,0,1,2.17-1,16.07,16.07,0,0,1,2.52-.59,18.9,18.9,0,0,1,2.87-.21,18.06,18.06,0,0,1,4,.44,10.67,10.67,0,0,1,3.3,1.27,7.75,7.75,0,0,1,2.22,2,6.66,6.66,0,0,1,1.18,2.64,14.65,14.65,0,0,1,.29,2.91c0,.73-.08,2.3-.23,4.72L159,48.28c-.1,2.06-.15,4-.15,5.71-1.93,0-3.75-.06-5.43-.06q-3.43,0-6.25.06c.17-1.75.36-4.35.55-7.8s.29-5.87.29-7.27c0-2.17-.42-3.68-1.25-4.54a4.26,4.26,0,0,0-3.16-1.28,5.23,5.23,0,0,0-3.16,1.1,6.94,6.94,0,0,0-2.29,3.18A25.7,25.7,0,0,0,137,44.25c-.22,3.19-.37,6.43-.45,9.74q-2.88-.06-5.61-.06C129,53.93,126.94,54,124.7,54Z"/><path d="M189.63,44.8Q189.5,46,188.94,49l-.75,4.61a37.46,37.46,0,0,1-8.84,1.1,21,21,0,0,1-5.5-.64,12.61,12.61,0,0,1-5-2.65,11.55,11.55,0,0,1-3.31-4.64,18.88,18.88,0,0,1-1.24-7,19.83,19.83,0,0,1,1.21-6.89,13.54,13.54,0,0,1,3.57-5.46,12.28,12.28,0,0,1,5.25-2.88,25.72,25.72,0,0,1,6.36-.73A35.87,35.87,0,0,1,189.92,25l.06.66c.06.69.1,1.4.13,2.12s.09,1.86.19,3.41l.17,2.57a22.55,22.55,0,0,0-7.29-1.45,8.69,8.69,0,0,0-4,.88,5.63,5.63,0,0,0-2.54,2.54,8.65,8.65,0,0,0-.82,3.84,8.41,8.41,0,0,0,.74,3.72,4.73,4.73,0,0,0,2.35,2.25,8.26,8.26,0,0,0,3.54.75,16.51,16.51,0,0,0,2.32-.2c.89-.14,1.67-.29,2.33-.45A23.63,23.63,0,0,0,189.63,44.8Z"/><path d="M223.45,45.29c-.25,1.15-.73,3.94-1.44,8.35-2.22.44-4.1.74-5.61.88s-3.06.22-4.61.22a38.45,38.45,0,0,1-6.31-.48,14.56,14.56,0,0,1-5-1.68,12.17,12.17,0,0,1-3.5-3,12.71,12.71,0,0,1-2.15-4.27,17.82,17.82,0,0,1-.73-5.1A18.59,18.59,0,0,1,195.6,33a14.3,14.3,0,0,1,3.79-5.51,13.73,13.73,0,0,1,5.34-2.82,23,23,0,0,1,6.19-.83,25.16,25.16,0,0,1,6.27.76,11.63,11.63,0,0,1,5.05,2.66,10.89,10.89,0,0,1,3,4.3,14.93,14.93,0,0,1,.88,5.15,20.14,20.14,0,0,1-.38,3.66l-20.19,0c0,.31,0,.58,0,.83a5.06,5.06,0,0,0,2.22,4.56,9.57,9.57,0,0,0,5.41,1.47,24.14,24.14,0,0,0,4.34-.45A59.58,59.58,0,0,0,223.45,45.29ZM205.74,36h9.5c0-.32,0-.6,0-.83a5.64,5.64,0,0,0-.53-2.57A3.29,3.29,0,0,0,213.21,31a4.91,4.91,0,0,0-2.23-.49,5.26,5.26,0,0,0-1.67.27,4.55,4.55,0,0,0-1.46.81,5,5,0,0,0-1.08,1.22,6,6,0,0,0-.63,1.34A15.1,15.1,0,0,0,205.74,36Z"/><path class="cls-1" d="M235.11,12.51c3.46.05,5.91.07,7.33.07,1.78,0,4.14,0,7.1-.07l-1,14.17c-.2,2.67-.34,5.17-.44,7.5S248,38.12,248,39a20.22,20.22,0,0,0,.37,4.24,6.61,6.61,0,0,0,1.33,2.88,5.78,5.78,0,0,0,2.68,1.78,10.72,10.72,0,0,0,3.58.6,10.12,10.12,0,0,0,3-.43,6.84,6.84,0,0,0,2-1,6.45,6.45,0,0,0,1.33-1.38,9.87,9.87,0,0,0,1.24-2.39,14.94,14.94,0,0,0,.8-3.49c.2-1.45.46-4.76.8-9.92.28-4.4.51-8.42.66-12.07a33,33,0,0,1,.37-5.32h14.7l-1.62,23.67c0,.44,0,.81,0,1.1a50.25,50.25,0,0,1-.85,9.78A13,13,0,0,1,275.88,52,14.94,14.94,0,0,1,271,55.8a24.46,24.46,0,0,1-7.27,2.38,48.93,48.93,0,0,1-15.43.17,28.32,28.32,0,0,1-5.77-1.55,20.48,20.48,0,0,1-4.47-2.39,11.39,11.39,0,0,1-2.67-2.58,10.67,10.67,0,0,1-1.47-3.15,15.86,15.86,0,0,1-.6-4.43c0-.54,0-1.34.07-2.42s.15-2.63.3-4.65l.44-5.33q.17-2.1.37-6.17Z"/><path class="cls-1" d="M283.85,67.47q.54-5.91.92-11.78.66-10.06.91-16.87t.24-13.5q5.85-.88,9.16-1.19t6.63-.3a31.43,31.43,0,0,1,7.63.86,11.41,11.41,0,0,1,5.61,3A14.17,14.17,0,0,1,318.13,33a18.93,18.93,0,0,1,1.07,6.34,19.89,19.89,0,0,1-.87,5.86,15.44,15.44,0,0,1-2.64,5.11,11.37,11.37,0,0,1-4.11,3.37,11.9,11.9,0,0,1-5.16,1.1,15.67,15.67,0,0,1-2.92-.28,15.33,15.33,0,0,1-2.87-.79,14.69,14.69,0,0,1-2.26-1.05c-.6-.36-1.36-.87-2.26-1.54l-.32,8c-.13,3.68-.2,6.47-.2,8.35-2.23,0-4.14-.06-5.74-.06Q287.77,67.41,283.85,67.47Zm13.28-34.8c-.15.86-.26,1.57-.32,2.12s-.11,1.28-.17,2.22-.09,1.67-.09,2.23a9.49,9.49,0,0,0,.74,4,5.85,5.85,0,0,0,2,2.48,5,5,0,0,0,2.81.88,5.06,5.06,0,0,0,2.91-.91,6.09,6.09,0,0,0,2.11-2.72,10.48,10.48,0,0,0,.77-4.1,7.3,7.3,0,0,0-1.62-4.95A6,6,0,0,0,301.57,32,17.43,17.43,0,0,0,297.13,32.67Z"/></g></g></svg>